# xmcd
# Copyright (C) 1995-1998 Ti Kan
#
# Track frame offsets:
#       150
#       11967
#       21255
#       36207
#       50357
#       66758
#       77697
#       91406
#       99653
#       111159
#
# Disc length: 1680 seconds
#
# Revision: 0
# Processed by: cddbd v1.5.1PL2 Copyright (c) Steve Scherf et al.
# Submitted via: CD-Transfer v1.0
#
DISCID=7d068e0a
DTITLE=Limousine - Limousine
DYEAR=2005
DGENRE=
TTITLE0=Not The One
TTITLE1=Died Inside
TTITLE2=Nothing You Know
TTITLE3=Crossroads
TTITLE4=Iglou
TTITLE5=Rain and Pain
TTITLE6=Lovers Lips
TTITLE7=Brotherhood
TTITLE8=Everydaylife
TTITLE9=Happy Girl
EXTD=
EXTT0=
EXTT1=
EXTT2=
EXTT3=
EXTT4=
EXTT5=
EXTT6=
EXTT7=
EXTT8=
EXTT9=
PLAYORDER=
